<?xml version="1.0" standalone="no"?>
<!DOCTYPE svg PUBLIC "-//W3C//DTD SVG 20010904//EN"
 "http://www.w3.org/TR/2001/REC-SVG-20010904/DTD/svg10.dtd">
<svg version="1.0" xmlns="http://www.w3.org/2000/svg"
 width="48.000000pt" height="48.000000pt" viewBox="0 0 48.000000 48.000000"
 preserveAspectRatio="xMidYMid meet">

<g transform="translate(0.000000,48.000000) scale(0.100000,-0.100000)"
fill="#000000" stroke="none">
<path d="M100 400 c0 -11 7 -20 15 -20 8 0 15 9 15 20 0 11 -7 20 -15 20 -8 0
-15 -9 -15 -20z"/>
<path d="M350 400 c0 -11 7 -20 15 -20 8 0 15 9 15 20 0 11 -7 20 -15 20 -8 0
-15 -9 -15 -20z"/>
<path d="M247 313 c-8 -10 -18 -30 -22 -45 -4 -15 -16 -28 -27 -32 -18 -4 -19
-8 -9 -20 18 -21 4 -39 -25 -32 -27 7 -32 -5 -9 -24 18 -15 52 -4 65 21 14 24
47 25 55 0 3 -11 13 -22 22 -25 12 -5 14 -2 8 16 -5 13 -8 42 -8 66 1 47 -20
54 -25 9 -3 -28 -32 -39 -32 -12 0 26 23 65 42 70 10 4 18 11 18 16 0 16 -36
10 -53 -8z"/>
<path d="M100 80 c0 -11 7 -20 15 -20 8 0 15 9 15 20 0 11 -7 20 -15 20 -8 0
-15 -9 -15 -20z"/>
<path d="M350 80 c0 -11 7 -20 15 -20 8 0 15 9 15 20 0 11 -7 20 -15 20 -8 0
-15 -9 -15 -20z"/>
</g>
</svg>
